<svg height="597pt" viewBox="-78 -18 597 597.33331" width="597pt" xmlns="http://www.w3.org/2000/svg"><path d="m357.167969 40h-282.003907c-4.035156 19.625-19.375 34.960938-38.996093 39v400.648438c19.929687 4.40625 35.300781 20.289062 39.046875 40.351562h281.953125c3.738281-20.046875 19.085937-35.933594 39-40.351562v-400.648438c-19.625-4.039062-34.960938-19.375-39-39zm-201 40h160v20h-160zm0 40h160v20h-160zm-40-40h20v20h-20zm0 40h20v20h-20zm-40 150h210v20h-210zm40 70h-40v-20h40zm230 80h-90v-20h90zm10-80h-220v-20h220zm0-50h-50v-20h50zm0-50h-280v-20h280zm0-50h-280v-20h280zm0 0"/><path d="m-3.832031 0v560h440v-560zm420 498.617188h-10c-16.941407.410156-30.351563 14.445312-30 31.382812v10h-320v-10c.351562-16.9375-13.0625-30.972656-30-31.382812h-10v-438.617188h10c16.566406 0 30-13.433594 30-30v-10h320v10c0 16.566406 13.429687 30 30 30h10zm0 0"/></svg>